<svg width="35" height="25" viewBox="0 0 35 25" fill="none" xmlns="http://www.w3.org/2000/svg">
<path d="M5.775 5.47498H29.225C29.4417 5.47498 29.625 5.39581 29.775 5.23748C29.925 5.07914 30 4.89164 30 4.67497C30 4.45831 29.925 4.27497 29.775 4.12498C29.625 3.97498 29.4417 3.89997 29.225 3.89997H5.775C5.55833 3.89997 5.375 3.97498 5.225 4.12498C5.075 4.27497 5 4.45831 5 4.67497C5 4.89164 5.075 5.07914 5.225 5.23748C5.375 5.39581 5.55833 5.47498 5.775 5.47498ZM29.225 11.725H5.775C5.55833 11.725 5.375 11.8 5.225 11.95C5.075 12.1 5 12.2833 5 12.5C5 12.7166 5.075 12.9 5.225 13.05C5.375 13.2 5.55833 13.275 5.775 13.275H29.225C29.4417 13.275 29.625 13.2 29.775 13.05C29.925 12.9 30 12.7166 30 12.5C30 12.2833 29.925 12.1 29.775 11.95C29.625 11.8 29.4417 11.725 29.225 11.725ZM29.225 19.525H5.775C5.55833 19.525 5.375 19.6 5.225 19.75C5.075 19.9 5 20.0833 5 20.3C5 20.5166 5.075 20.7041 5.225 20.8625C5.375 21.0208 5.55833 21.1 5.775 21.1H29.225C29.4417 21.1 29.625 21.0208 29.775 20.8625C29.925 20.7041 30 20.5166 30 20.3C30 20.0833 29.925 19.9 29.775 19.75C29.625 19.6 29.4417 19.525 29.225 19.525Z" fill="#333333"/>
</svg>
